<svg width="509" height="100" viewBox="0 0 509 100" fill="none" xmlns="http://www.w3.org/2000/svg">
<path d="M147.348 76.0563V44.4607H161.91V33.8027H121.124V44.4607H135.748V76.0563H147.348Z" fill="#FF671F"/>
<path d="M176.312 76.0563V33.8027H164.712V76.0563H176.312Z" fill="#FF671F"/>
<path d="M205.316 76.0563V44.4607H219.878V33.8027H179.092V44.4607H193.716V76.0563H205.316Z" fill="#FF671F"/>
<path d="M233.231 76.0563L236.44 68.2362H256.062L259.209 76.0563H272.537L254.643 33.8027H238.044L220.212 76.0563H233.231ZM243.227 51.6501L245.881 44.5238H246.683L249.398 51.6501L251.804 57.5782H240.821L243.227 51.6501Z" fill="#FF671F"/>
<path d="M285.379 76.0563V59.5332L284.885 51.4609H285.687L290.932 59.7855L303.149 76.0563H315.49V33.8027H303.89V50.1366L304.445 59.344H303.643L297.596 49.632L286.119 33.8027H273.778V76.0563H285.379Z" fill="#FF671F"/>
<path d="M342.753 76.0563C354.505 76.0563 362.608 69.9326 362.608 60.0734V59.2773H355.248V60.0734C355.248 66.3808 351.227 69.6876 342.815 69.6876C333.104 69.6876 328.403 65.1561 328.403 54.9295C328.403 44.7029 333.104 40.1101 342.815 40.1101C351.227 40.1101 355.248 43.4782 355.248 49.7243V50.5817H362.608V49.7243C362.608 39.9264 354.443 33.8027 342.753 33.8027C329.888 33.8027 321.352 42.131 321.352 54.9295C321.352 67.728 329.888 76.0563 342.753 76.0563Z" fill="#F9AA3B"/>
<path d="M374.209 75.4439V57.7464H398.579V75.4439H405.198V34.4151H398.579V51.8064H374.209V34.4151H367.529V75.4439H374.209Z" fill="#F9AA3B"/>
<path d="M415.772 75.4439L420.535 64.7886H442.431L447.194 75.4439H454.74L436.246 34.4151H426.844L408.35 75.4439H415.772ZM428.823 46.3563L431.235 40.5388H431.73L434.143 46.3563L439.771 58.8487H423.195L428.823 46.3563Z" fill="#F9AA3B"/>
<path d="M464.512 75.4439V34.4151H457.832V75.4439H464.512Z" fill="#F9AA3B"/>
<path d="M477.378 75.4439V51.3777L477.131 44.2743H477.626L482.821 51.5002L501.501 75.4439H508.676V34.4151H501.996V58.6649L502.305 66.0746H501.81L496.429 58.42L477.873 34.4151H470.698V75.4439H477.378Z" fill="#F9AA3B"/>
<path d="M50.7046 0C22.7016 0 0 22.446 0 50.1338C0 76.0612 19.9057 97.3914 45.431 99.9993V29.0566L23.0162 20.4247H45.4303L50.7039 17.4138L55.9774 20.4247H78.3916L55.9774 29.0566V100C81.5028 97.39 101.408 76.0612 101.408 50.1338C101.409 22.446 78.7083 0 50.7046 0ZM36.0974 34.6246V85.5326L25.5495 72.7886V41.0183L17.6634 37.9487L15.4196 42.1298L11.7629 25.1379L36.0974 34.6246ZM85.9896 42.1298L83.7458 37.9487L75.8596 41.0183V72.7886L65.3125 85.5326V34.6246L89.6456 25.1379L85.9896 42.1298Z" fill="#FF671F"/>
</svg>
